<?xml version="1.0"?>
<svg xmlns="http://www.w3.org/2000/svg" xmlns:xlink="http://www.w3.org/1999/xlink" viewBox="0 0 64 64" width="512" height="512"><linearGradient id="a" gradientUnits="userSpaceOnUse" x1="10" x2="10" y1="54" y2="-.956"><stop offset="0" stop-color="#006df0"/><stop offset="1" stop-color="#00e7f0"/></linearGradient><linearGradient id="b" x1="6" x2="6" xlink:href="#a" y1="54" y2="-.956"/><linearGradient id="c" x1="14" x2="14" xlink:href="#a" y1="54" y2="-.956"/><linearGradient id="d" x1="18" x2="18" xlink:href="#a" y1="54" y2="-.956"/><linearGradient id="e" x1="22" x2="22" xlink:href="#a" y1="54" y2="-.956"/><linearGradient id="f" x1="26" x2="26" xlink:href="#a" y1="54" y2="-.956"/><linearGradient id="g" x1="30" x2="30" xlink:href="#a" y1="54" y2="-.956"/><linearGradient id="h" x1="34" x2="34" xlink:href="#a" y1="54" y2="-.956"/><linearGradient id="i" x1="38" x2="38" xlink:href="#a" y1="54" y2="-.956"/><linearGradient id="j" x1="42" x2="42" xlink:href="#a" y1="54" y2="-.956"/><linearGradient id="k" x1="46" x2="46" xlink:href="#a" y1="54" y2="-.956"/><linearGradient id="l" x1="50" x2="50" xlink:href="#a" y1="54" y2="-.956"/><linearGradient id="m" x1="54" x2="54" xlink:href="#a" y1="54" y2="-.956"/><linearGradient id="n" x1="58" x2="58" xlink:href="#a" y1="54" y2="-.956"/><linearGradient id="o" x1="32" x2="32" xlink:href="#a" y1="54" y2="-.956"/><linearGradient id="p" x1="34.657" x2="34.657" xlink:href="#a" y1="54" y2="-.956"/><path d="m9 15h2v2h-2z" fill="url(#a)"/><path d="m5 15h2v2h-2z" fill="url(#b)"/><path d="m13 15h2v2h-2z" fill="url(#c)"/><path d="m17 15h2v2h-2z" fill="url(#d)"/><path d="m21 15h2v2h-2z" fill="url(#e)"/><path d="m25 15h2v2h-2z" fill="url(#f)"/><path d="m29 15h2v2h-2z" fill="url(#g)"/><path d="m33 15h2v2h-2z" fill="url(#h)"/><path d="m37 15h2v2h-2z" fill="url(#i)"/><path d="m41 15h2v2h-2z" fill="url(#j)"/><path d="m45 15h2v2h-2z" fill="url(#k)"/><path d="m49 15h2v2h-2z" fill="url(#l)"/><path d="m53 15h2v2h-2z" fill="url(#m)"/><path d="m57 15h2v2h-2z" fill="url(#n)"/><path d="m9 47h2v2h-2z" fill="url(#a)"/><path d="m5 47h2v2h-2z" fill="url(#b)"/><path d="m13 47h2v2h-2z" fill="url(#c)"/><path d="m17 47h2v2h-2z" fill="url(#d)"/><path d="m21 47h2v2h-2z" fill="url(#e)"/><path d="m25 47h2v2h-2z" fill="url(#f)"/><path d="m29 47h2v2h-2z" fill="url(#g)"/><path d="m33 47h2v2h-2z" fill="url(#h)"/><path d="m37 47h2v2h-2z" fill="url(#i)"/><path d="m41 47h2v2h-2z" fill="url(#j)"/><path d="m45 47h2v2h-2z" fill="url(#k)"/><path d="m49 47h2v2h-2z" fill="url(#l)"/><path d="m53 47h2v2h-2z" fill="url(#m)"/><path d="m57 47h2v2h-2z" fill="url(#n)"/><path d="m61 11h-4v-3a1 1 0 0 0 -1-1h-4v-3a1 1 0 0 0 -1-1h-38a1 1 0 0 0 -1 1v3h-4a1 1 0 0 0 -1 1v3h-4a1 1 0 0 0 -1 1v40a1 1 0 0 0 1 1h58a1 1 0 0 0 1-1v-40a1 1 0 0 0 -1-1zm-47-6h36v2h-36zm-5 4h46v2h-46zm51 42h-56v-38h56z" fill="url(#o)"/><path d="m28 42.313a1 1 0 0 1 -1-1v-18.626a1 1 0 0 1 1.573-.82l13.314 9.314a1 1 0 0 1 0 1.638l-13.314 9.314a1 1 0 0 1 -.573.18zm1-17.707v14.788l10.569-7.394z" fill="url(#p)"/></svg>
